<svg width="26" height="30" viewBox="0 0 26 30" fill="none" xmlns="http://www.w3.org/2000/svg">
<path d="M21.4013 3.70504C21.2844 3.70534 21.1696 3.67426 21.0688 3.61504C18.295 2.13004 15.8969 1.50004 13.0219 1.50004C10.1613 1.50004 7.44503 2.20504 4.9744 3.61504C4.62503 3.81254 4.19441 3.67504 3.99191 3.31254C3.90152 3.13758 3.88113 2.93477 3.93488 2.74532C3.98862 2.55586 4.11248 2.39398 4.28128 2.29254C6.94589 0.781279 9.95858 -0.00889235 13.0219 4.44544e-05C16.0988 4.44544e-05 18.7863 0.705044 21.7338 2.28004C21.9057 2.3746 22.0338 2.53279 22.0905 2.72067C22.1471 2.90856 22.1279 3.11117 22.0369 3.28504C21.9822 3.40849 21.8932 3.51366 21.7806 3.5881C21.6679 3.66254 21.5363 3.70312 21.4013 3.70504ZM0.726905 11.58C0.576792 11.579 0.430625 11.5319 0.308155 11.445C0.148816 11.3266 0.0416556 11.151 0.00924546 10.9551C-0.0231647 10.7593 0.0217057 10.5585 0.134405 10.395C1.56503 8.29505 3.3844 6.64504 5.55253 5.49004C10.0888 3.06254 15.8969 3.04504 20.4475 5.47504C22.615 6.63004 24.435 8.26505 25.8657 10.35C25.9779 10.5136 26.0225 10.7143 25.9901 10.91C25.9577 11.1057 25.8509 11.2813 25.6919 11.4C25.6148 11.4577 25.5267 11.4989 25.433 11.5211C25.3393 11.5433 25.2421 11.5461 25.1473 11.5292C25.0525 11.5123 24.9622 11.4762 24.8819 11.423C24.8016 11.3698 24.7332 11.3008 24.6807 11.22C23.3807 9.33004 21.7338 7.84504 19.7832 6.81004C15.6369 4.60504 10.3344 4.60504 6.20253 6.82504C4.23753 7.87504 2.59066 9.37504 1.29066 11.2625C1.2346 11.3619 1.15243 11.444 1.05306 11.4999C0.95369 11.5559 0.840898 11.5836 0.726905 11.58ZM9.75628 29.6875C9.6608 29.6885 9.56624 29.6688 9.479 29.63C9.39176 29.5912 9.31389 29.5341 9.25066 29.4625C7.99378 28.155 7.31253 27.3125 6.34691 25.5C5.34691 23.655 4.83003 21.405 4.83003 18.99C4.83003 14.535 8.4994 10.905 13.0075 10.905C17.5157 10.905 21.1875 14.535 21.1875 18.99C21.1904 19.0867 21.1738 19.1829 21.1388 19.273C21.1038 19.3631 21.051 19.4453 20.9837 19.5146C20.9163 19.584 20.8358 19.6391 20.7467 19.6767C20.6577 19.7144 20.562 19.7338 20.4653 19.7338C20.3687 19.7338 20.273 19.7144 20.184 19.6767C20.0949 19.6391 20.0143 19.584 19.947 19.5146C19.8797 19.4453 19.8269 19.3631 19.7919 19.273C19.7569 19.1829 19.7403 19.0867 19.7432 18.99C19.7432 15.36 16.7232 12.405 13.0107 12.405C9.29816 12.405 6.27503 15.36 6.27503 18.99C6.27503 21.15 6.73691 23.145 7.61816 24.765C8.54315 26.49 9.18066 27.225 10.2913 28.395C10.423 28.5406 10.4959 28.73 10.4959 28.9263C10.4959 29.1226 10.423 29.312 10.2913 29.4575C10.1495 29.6006 9.95768 29.6831 9.75628 29.6875ZM20.1157 26.9125C18.3963 26.9125 16.8794 26.4625 15.6369 25.5775C14.5783 24.8356 13.7135 23.8501 13.1153 22.7041C12.5171 21.5582 12.203 20.2852 12.1994 18.9925C12.1954 18.8951 12.211 18.7979 12.2455 18.7067C12.28 18.6155 12.3326 18.5323 12.4001 18.4619C12.4675 18.3915 12.5486 18.3356 12.6382 18.2973C12.7279 18.2591 12.8244 18.2394 12.9219 18.2394C13.0194 18.2394 13.1159 18.2591 13.2056 18.2973C13.2952 18.3356 13.3763 18.3915 13.4438 18.4619C13.5112 18.5323 13.5638 18.6155 13.5983 18.7067C13.6328 18.7979 13.6485 18.8951 13.6444 18.9925C13.6468 20.0426 13.9029 21.0764 14.3909 22.0062C14.8788 22.9359 15.5842 23.734 16.4469 24.3325C17.4725 25.0525 18.6719 25.395 20.1169 25.395C20.6202 25.3861 21.1218 25.3359 21.6169 25.245C22.0069 25.17 22.3825 25.44 22.4544 25.86C22.491 26.0539 22.4493 26.2543 22.3383 26.4174C22.2274 26.5805 22.0563 26.6929 21.8625 26.73C21.287 26.8438 20.7023 26.904 20.1157 26.91V26.9125ZM17.2113 30C17.1478 29.9974 17.0849 29.9873 17.0238 29.97C14.7263 29.31 13.2238 28.425 11.6488 26.82C9.62566 24.735 8.51378 21.96 8.51378 18.99C8.51378 16.56 10.5075 14.58 12.9632 14.58C15.4188 14.58 17.4132 16.56 17.4132 18.99C17.4132 20.595 18.7569 21.9 20.4182 21.9C22.0794 21.9 23.4232 20.595 23.4232 18.99C23.4232 13.335 18.7275 8.74504 12.9488 8.74504C8.84566 8.74504 5.08941 11.115 3.39941 14.79C2.83691 16.005 2.54691 17.43 2.54691 18.99C2.54691 20.16 2.64753 22.005 3.51441 24.405C3.65941 24.795 3.47128 25.23 3.09565 25.365C3.00639 25.399 2.91117 25.4146 2.81572 25.4109C2.72027 25.4072 2.62656 25.3842 2.54022 25.3433C2.45388 25.3025 2.37669 25.2446 2.31329 25.1731C2.24989 25.1017 2.20158 25.0181 2.17128 24.9275C1.4742 23.0255 1.11709 21.0158 1.11628 18.99C1.11628 17.19 1.44878 15.5525 2.09878 14.13C4.02066 9.94254 8.28253 7.23004 12.9488 7.23004C19.5225 7.23004 24.8682 12.495 24.8682 18.975C24.8682 21.405 22.8744 23.385 20.4182 23.385C17.9619 23.385 15.9682 21.405 15.9682 18.975C15.9688 17.37 14.625 16.0625 12.9638 16.0625C11.3025 16.0625 9.95878 17.3675 9.95878 18.9725C9.95878 21.535 10.9125 23.9375 12.6607 25.7375C14.0357 27.1475 15.3482 27.925 17.385 28.5125C17.775 28.6175 17.9919 29.0375 17.8907 29.4275C17.8591 29.5859 17.7747 29.7288 17.6512 29.8328C17.5278 29.9368 17.3727 29.9958 17.2113 30Z" fill="#217AC0"/>
</svg>
