<svg width="13" height="15" viewBox="0 0 13 15" fill="none" xmlns="http://www.w3.org/2000/svg">
<path d="M10.24 5.17667C10.3395 5.27628 10.3954 5.41131 10.3954 5.55209C10.3954 5.69287 10.3395 5.8279 10.24 5.92751L8.82337 7.34417C8.72376 7.44366 8.58874 7.49954 8.44796 7.49954C8.30717 7.49954 8.17215 7.44366 8.07254 7.34417L7.36421 6.63584C7.31201 6.5872 7.27015 6.52855 7.24111 6.46339C7.21207 6.39822 7.19646 6.32787 7.1952 6.25654C7.19394 6.18521 7.20707 6.11436 7.23379 6.04821C7.2605 5.98206 7.30027 5.92197 7.35072 5.87152C7.40117 5.82107 7.46126 5.7813 7.52741 5.75459C7.59356 5.72787 7.66441 5.71474 7.73574 5.716C7.80707 5.71726 7.87742 5.73287 7.94259 5.76191C8.00775 5.79095 8.0664 5.83281 8.11504 5.88501L8.44796 6.21792L9.4892 5.17667C9.58881 5.07719 9.72384 5.02131 9.86462 5.02131C10.0054 5.02131 10.1404 5.07719 10.24 5.17667V5.17667ZM10.24 9.82334C10.2922 9.7747 10.3341 9.71605 10.3631 9.65089C10.3922 9.58572 10.4078 9.51537 10.409 9.44404C10.4103 9.37271 10.3972 9.30186 10.3705 9.23571C10.3437 9.16956 10.304 9.10947 10.2535 9.05902C10.2031 9.00857 10.143 8.9688 10.0768 8.94209C10.0107 8.91537 9.93983 8.90224 9.8685 8.9035C9.79717 8.90476 9.72682 8.92037 9.66166 8.94941C9.59649 8.97845 9.53784 9.02031 9.4892 9.07251L8.44796 10.1138L8.11504 9.78084C8.0664 9.72864 8.00775 9.68678 7.94259 9.65774C7.87742 9.62871 7.80707 9.61309 7.73574 9.61184C7.66441 9.61058 7.59356 9.6237 7.52741 9.65042C7.46126 9.67714 7.40117 9.71691 7.35072 9.76735C7.30027 9.8178 7.2605 9.87789 7.23379 9.94404C7.20707 10.0102 7.19394 10.081 7.1952 10.1524C7.19646 10.2237 7.21207 10.2941 7.24111 10.3592C7.27015 10.4244 7.31201 10.483 7.36421 10.5317L8.07254 11.24C8.17215 11.3395 8.30717 11.3954 8.44796 11.3954C8.58874 11.3954 8.72376 11.3395 8.82337 11.24L10.24 9.82334ZM2.95837 6.26042C2.95837 6.11953 3.01434 5.9844 3.11397 5.88477C3.2136 5.78514 3.34873 5.72917 3.48962 5.72917H5.96879C6.10969 5.72917 6.24481 5.78514 6.34444 5.88477C6.44407 5.9844 6.50004 6.11953 6.50004 6.26042C6.50004 6.40132 6.44407 6.53644 6.34444 6.63607C6.24481 6.7357 6.10969 6.79167 5.96879 6.79167H3.48962C3.34873 6.79167 3.2136 6.7357 3.11397 6.63607C3.01434 6.53644 2.95837 6.40132 2.95837 6.26042ZM3.48962 9.62501C3.34873 9.62501 3.2136 9.68098 3.11397 9.78061C3.01434 9.88023 2.95837 10.0154 2.95837 10.1563C2.95837 10.2972 3.01434 10.4323 3.11397 10.5319C3.2136 10.6315 3.34873 10.6875 3.48962 10.6875H5.96879C6.10969 10.6875 6.24481 10.6315 6.34444 10.5319C6.44407 10.4323 6.50004 10.2972 6.50004 10.1563C6.50004 10.0154 6.44407 9.88023 6.34444 9.78061C6.24481 9.68098 6.10969 9.62501 5.96879 9.62501H3.48962ZM9.32346 1.83334C9.2799 1.44375 9.09428 1.08388 8.80209 0.822527C8.5099 0.561177 8.13164 0.416684 7.73962 0.416672H5.26046C4.86844 0.416684 4.49018 0.561177 4.19799 0.822527C3.9058 1.08388 3.72018 1.44375 3.67662 1.83334H2.42712C2.00443 1.83334 1.59906 2.00125 1.30017 2.30014C1.00129 2.59902 0.833374 3.0044 0.833374 3.42709V12.9896C0.833374 13.4123 1.00129 13.8177 1.30017 14.1165C1.59906 14.4154 2.00443 14.5833 2.42712 14.5833H10.573C10.7822 14.5833 10.9895 14.5421 11.1829 14.462C11.3762 14.3819 11.5519 14.2645 11.6999 14.1165C11.8479 13.9685 11.9653 13.7929 12.0454 13.5995C12.1255 13.4061 12.1667 13.1989 12.1667 12.9896V3.42709C12.1667 3.21779 12.1255 3.01055 12.0454 2.81719C11.9653 2.62382 11.8479 2.44813 11.6999 2.30014C11.5519 2.15214 11.3762 2.03475 11.1829 1.95466C10.9895 1.87456 10.7822 1.83334 10.573 1.83334H9.32346ZM5.26046 3.60417H7.73962C8.29212 3.60417 8.77875 3.32296 9.06491 2.89584H10.573C10.7139 2.89584 10.849 2.95181 10.9486 3.05144C11.0482 3.15107 11.1042 3.28619 11.1042 3.42709V12.9896C11.1042 13.1305 11.0482 13.2656 10.9486 13.3652C10.849 13.4649 10.7139 13.5208 10.573 13.5208H2.42712C2.28623 13.5208 2.1511 13.4649 2.05147 13.3652C1.95184 13.2656 1.89587 13.1305 1.89587 12.9896V3.42709C1.89587 3.28619 1.95184 3.15107 2.05147 3.05144C2.1511 2.95181 2.28623 2.89584 2.42712 2.89584H3.93516C4.22133 3.32296 4.70796 3.60417 5.26046 3.60417ZM5.26046 1.47917H7.73962C7.88052 1.47917 8.01564 1.53514 8.11527 1.63477C8.2149 1.7344 8.27087 1.86953 8.27087 2.01042C8.27087 2.15132 8.2149 2.28644 8.11527 2.38607C8.01564 2.4857 7.88052 2.54167 7.73962 2.54167H5.26046C5.11956 2.54167 4.98443 2.4857 4.88481 2.38607C4.78518 2.28644 4.72921 2.15132 4.72921 2.01042C4.72921 1.86953 4.78518 1.7344 4.88481 1.63477C4.98443 1.53514 5.11956 1.47917 5.26046 1.47917Z" fill="white"/>
</svg>
