<svg width="11" height="11" viewBox="0 0 11 11" fill="none" xmlns="http://www.w3.org/2000/svg">
<g clip-path="url(#clip0_0_344)">
<path d="M8.87952 1.82142H7.51345V1.13838C7.51345 1.078 7.48946 1.02009 7.44676 0.977391C7.40406 0.934693 7.34615 0.910706 7.28577 0.910706C7.22538 0.910706 7.16747 0.934693 7.12477 0.977391C7.08208 1.02009 7.05809 1.078 7.05809 1.13838V1.82142H3.87059V1.13838C3.87059 1.078 3.8466 1.02009 3.8039 0.977391C3.76121 0.934693 3.70329 0.910706 3.64291 0.910706C3.58253 0.910706 3.52462 0.934693 3.48192 0.977391C3.43922 1.02009 3.41523 1.078 3.41523 1.13838V1.82142H2.04916C1.74735 1.82178 1.45801 1.94184 1.24459 2.15525C1.03118 2.36866 0.911128 2.658 0.910767 2.95981V8.87946C0.911128 9.18127 1.03118 9.47061 1.24459 9.68402C1.45801 9.89744 1.74735 10.0175 2.04916 10.0179H8.87952C9.18137 10.0176 9.47078 9.89759 9.68422 9.68416C9.89766 9.47072 10.0177 9.1813 10.0179 8.87946V2.95981C10.0177 2.65797 9.89766 2.36855 9.68422 2.15511C9.47078 1.94168 9.18137 1.82166 8.87952 1.82142ZM9.56255 8.87946C9.56255 9.25649 9.25655 9.56249 8.87952 9.56249H2.04916C1.67121 9.56249 1.36612 9.25649 1.36612 8.87946V5.00892H9.56255V8.87946ZM9.56255 4.55356H1.36612V2.95981C1.36612 2.58278 1.67121 2.27678 2.04916 2.27678H3.41523V2.95981C3.41523 3.0202 3.43922 3.07811 3.48192 3.12081C3.52462 3.1635 3.58253 3.18749 3.64291 3.18749C3.70329 3.18749 3.76121 3.1635 3.8039 3.12081C3.8466 3.07811 3.87059 3.0202 3.87059 2.95981V2.27678H7.05809V2.95981C7.05809 3.0202 7.08208 3.07811 7.12477 3.12081C7.16747 3.1635 7.22538 3.18749 7.28577 3.18749C7.34615 3.18749 7.40406 3.1635 7.44676 3.12081C7.48946 3.07811 7.51345 3.0202 7.51345 2.95981V2.27678H8.87952C9.25655 2.27678 9.56255 2.58278 9.56255 2.95981V4.55356Z" fill="#FF7561"/>
</g>
<defs>
<clipPath id="clip0_0_344">
<rect width="10.9286" height="10.9286" fill="white"/>
</clipPath>
</defs>
</svg>
